<?xml version="1.0" encoding="UTF-8"?>
<svg version="1.1" xmlns="http://www.w3.org/2000/svg" width="225" height="225">
<path d="M0 0 C74.25 0 148.5 0 225 0 C225 74.25 225 148.5 225 225 C150.75 225 76.5 225 0 225 C0 150.75 0 76.5 0 0 Z " fill="#000000" transform="translate(0,0)"/>
<path d="M0 0 C4.96175316 3.02566366 8.44248958 6.51803558 10.375 12.0625 C10.8503349 17.24468372 10.6594417 21.80032852 10.375 27.0625 C5.755 27.0625 1.135 27.0625 -3.625 27.0625 C-3.7075 25.495 -3.79 23.9275 -3.875 22.3125 C-4.22055063 19.1025165 -4.50824848 17.26681515 -6.125 14.4375 C-9.8044783 12.41378693 -13.51804937 12.22295761 -17.625 13.0625 C-19.30180224 14.31700567 -19.30180224 14.31700567 -20.625 16.0625 C-20.9355021 18.9682743 -21.06917817 21.65536097 -21.05859375 24.5625 C-21.06645653 25.81063477 -21.06645653 25.81063477 -21.07447815 27.08398438 C-21.08089879 28.84243657 -21.07956077 30.60093171 -21.07104492 32.359375 C-21.06253048 35.05285897 -21.09130049 37.74422541 -21.12304688 40.4375 C-21.12465885 42.1458327 -21.12408143 43.85416916 -21.12109375 45.5625 C-21.13232773 46.36880859 -21.14356171 47.17511719 -21.15513611 48.00585938 C-21.12822355 52.44758667 -21.12822355 52.44758667 -18.81274414 56.078125 C-14.38323041 58.07118374 -10.19471959 57.2049299 -5.625 56.0625 C-5.295 51.4425 -4.965 46.8225 -4.625 42.0625 C0.655 42.0625 5.935 42.0625 11.375 42.0625 C11.75360017 52.15850459 10.9626831 58.99241841 3.98828125 66.58984375 C-1.71687553 71.79769872 -8.39244225 72.37135563 -15.74609375 72.2734375 C-22.62341459 71.76953611 -27.76670342 69.44759269 -33.01953125 65.05078125 C-37.90388701 59.00178591 -39.23705798 53.23728566 -39.19140625 45.59375 C-39.19760483 44.71400513 -39.20380341 43.83426025 -39.21018982 42.92785645 C-39.21725259 41.07903136 -39.21417635 39.2301422 -39.20141602 37.38134766 C-39.18753425 34.56943726 -39.22169094 31.76084978 -39.25976562 28.94921875 C-39.26071688 27.14322836 -39.25885763 25.33723385 -39.25390625 23.53125 C-39.27379356 22.28559265 -39.27379356 22.28559265 -39.29408264 21.01477051 C-39.18181893 13.89881158 -36.52028046 9.23994762 -31.78125 4.0390625 C-31.2346875 3.59304687 -30.688125 3.14703125 -30.125 2.6875 C-29.5784375 2.22601563 -29.031875 1.76453125 -28.46875 1.2890625 C-20.70814928 -3.87371002 -8.42022868 -3.7166915 0 0 Z " fill="#F8F8F8" transform="translate(122.625,53.9375)"/>
<path d="M0 0 C14.19 0 28.38 0 43 0 C43 4.29 43 8.58 43 13 C42 14 42 14 39.59155273 14.11352539 C38.54942627 14.10828857 37.5072998 14.10305176 36.43359375 14.09765625 C35.30888672 14.09443359 34.18417969 14.09121094 33.02539062 14.08789062 C31.84138672 14.07951172 30.65738281 14.07113281 29.4375 14.0625 C28.24962891 14.05798828 27.06175781 14.05347656 25.83789062 14.04882812 C22.89190588 14.03699686 19.94594684 14.01906076 17 14 C17 18.29 17 22.58 17 27 C22.94 27 28.88 27 35 27 C35 31.29 35 35.58 35 40 C29.06 40 23.12 40 17 40 C17 44.95 17 49.9 17 55 C25.58 55 34.16 55 43 55 C43 59.95 43 64.9 43 70 C28.81 70 14.62 70 0 70 C0 46.9 0 23.8 0 0 Z " fill="#F7F7F7" transform="translate(36,54)"/>
<path d="M0 0 C5.61 0 11.22 0 17 0 C17.01401855 2.37687012 17.01401855 2.37687012 17.02832031 4.80175781 C17.06816753 10.67623086 17.13391257 16.5501773 17.20751953 22.42431641 C17.23575956 24.96754191 17.2569589 27.51085567 17.27099609 30.05419922 C17.29238277 33.70846853 17.33901391 37.36167314 17.390625 41.015625 C17.39185364 42.15429016 17.39308228 43.29295532 17.39434814 44.46612549 C17.41406677 45.52692322 17.4337854 46.58772095 17.45410156 47.68066406 C17.46298401 48.61332092 17.47186646 49.54597778 17.48101807 50.50689697 C18.38972297 54.87216444 21.43683329 56.62455553 25 59 C24.50628906 59.54269531 24.01257813 60.08539063 23.50390625 60.64453125 C22.54291016 61.71767578 22.54291016 61.71767578 21.5625 62.8125 C20.92441406 63.52019531 20.28632813 64.22789063 19.62890625 64.95703125 C17.80913988 66.99896152 17.80913988 66.99896152 17 70 C12.05567065 69.7588132 9.19905674 68.24638997 5.71112061 64.90696716 C-0.43958871 58.05227752 -0.55042381 50.0917207 -0.390625 41.30859375 C-0.38496521 40.12274185 -0.37930542 38.93688995 -0.37347412 37.71510315 C-0.35121801 33.9554784 -0.3010393 30.19683306 -0.25 26.4375 C-0.2299212 23.87696696 -0.21167286 21.31641887 -0.1953125 18.75585938 C-0.15138811 12.5035332 -0.08243331 6.25193223 0 0 Z " fill="#63ACA0" transform="translate(139,54)"/>
<path d="M0 0 C5.28 0 10.56 0 16 0 C16.09245306 4.80242288 16.17189182 9.60168896 16.21972656 14.40429688 C16.23969079 16.03363578 16.2668723 17.66290445 16.30175781 19.29199219 C16.55294766 31.33432892 16.16888116 41.30938453 7.51953125 50.59375 C4.97049507 52.9527552 2.56167537 55 -1 55 C-0.67 36.85 -0.34 18.7 0 0 Z " fill="#63AEA1" transform="translate(173,54)"/>
<path d="M0 0 C0.33 0 0.66 0 1 0 C1.69887347 7.53230299 1.46168883 13.43765322 -2.91796875 19.796875 C-7.79328001 24.95574095 -13.63139904 27.66995603 -20.66796875 28.359375 C-23.80545007 28.37306085 -26.87543001 28.27213997 -30 28 C-28.25766527 22.00603507 -26.15651196 19.37333314 -21 16 C-18.24934238 14.67919964 -15.46061916 13.4831225 -12.65625 12.28125 C-6.87514677 9.49271785 -2.99913747 5.66503744 0 0 Z " fill="#61A89C" transform="translate(188,98)"/>
<path d="M0 0 C1.32 0 2.64 0 4 0 C4.66 1.65 5.32 3.3 6 5 C6.66 3.35 7.32 1.7 8 0 C9.32 0 10.64 0 12 0 C12.66 1.65 13.32 3.3 14 5 C14.33 3.35 14.66 1.7 15 0 C16.32 0 17.64 0 19 0 C18.71653722 1.91789713 18.4228972 3.83429183 18.125 5.75 C17.96257812 6.81734375 17.80015625 7.8846875 17.6328125 8.984375 C17.06776118 11.67708871 16.36577086 13.63572439 15 16 C13.68 15.67 12.36 15.34 11 15 C10.67 13.68 10.34 12.36 10 11 C9.34 12.65 8.68 14.3 8 16 C6.68 16 5.36 16 4 16 C2.68 10.72 1.36 5.44 0 0 Z " fill="#E5E5E5" transform="translate(140,134)"/>
<path d="M0 0 C9.625 -0.25 9.625 -0.25 13 2 C13.43132515 6.05445642 13.30019361 7.54970958 11 11 C11.80648688 14.65670531 11.80648688 14.65670531 13 18 C11.125 17.875 11.125 17.875 9 17 C7.75 13.9375 7.75 13.9375 7 11 C6.01 11 5.02 11 4 11 C4 13.31 4 15.62 4 18 C2.68 18 1.36 18 0 18 C0 12.06 0 6.12 0 0 Z " fill="#E5E5E5" transform="translate(116,155)"/>
<path d="M0 0 C1.32 0 2.64 0 4 0 C5.484375 1.75 5.484375 1.75 6.75 4 C7.17796875 4.7425 7.6059375 5.485 8.046875 6.25 C8.36140625 6.8275 8.6759375 7.405 9 8 C9.33 5.36 9.66 2.72 10 0 C11.32 0 12.64 0 14 0 C14 5.94 14 11.88 14 18 C12.68 18 11.36 18 10 18 C8.515625 16.25 8.515625 16.25 7.25 14 C6.82203125 13.2575 6.3940625 12.515 5.953125 11.75 C5.48132812 10.88375 5.48132812 10.88375 5 10 C4.67 12.64 4.34 15.28 4 18 C2.68 18 1.36 18 0 18 C0 12.06 0 6.12 0 0 Z " fill="#E2E2E2" transform="translate(54,155)"/>
<path d="M0 0 C1.423125 -0.061875 2.84625 -0.12375 4.3125 -0.1875 C5.51326172 -0.23970703 5.51326172 -0.23970703 6.73828125 -0.29296875 C9 0 9 0 10.76953125 1.19921875 C12.39104734 3.57229468 12.40050639 5.14328411 12.375 8 C12.38273437 8.86625 12.39046875 9.7325 12.3984375 10.625 C12 13 12 13 10.76953125 14.80078125 C8.47480385 16.35592763 7.05882558 16.30690546 4.3125 16.1875 C2.889375 16.125625 1.46625 16.06375 0 16 C0 10.72 0 5.44 0 0 Z " fill="#E5E5E5" transform="translate(51,134)"/>
<path d="M0 0 C2.28837946 1.66525266 2.92598387 2.55880584 3.3984375 5.375 C3.39070312 6.24125 3.38296875 7.1075 3.375 8 C3.38273438 8.86625 3.39046875 9.7325 3.3984375 10.625 C2.92598387 13.44119416 2.28837946 14.33474734 0 16 C-5.12044047 16.64005506 -5.12044047 16.64005506 -7.6640625 14.7890625 C-9.426948 12.42823923 -9.40109576 10.92272562 -9.375 8 C-9.38273437 7.13375 -9.39046875 6.2675 -9.3984375 5.375 C-8.48259132 -0.08416152 -5.00751795 -0.62593974 0 0 Z " fill="#F4F4F4" transform="translate(135,134)"/>
<path d="M0 0 C5 1 5 1 6.8125 3.5625 C7.204375 4.366875 7.59625 5.17125 8 6 C8.33 4.02 8.66 2.04 9 0 C10.32 0 11.64 0 13 0 C13 5.28 13 10.56 13 16 C11.68 16 10.36 16 9 16 C7.02 12.535 7.02 12.535 5 9 C4.67 11.31 4.34 13.62 4 16 C2.68 16 1.36 16 0 16 C0 10.72 0 5.44 0 0 Z " fill="#E1E1E1" transform="translate(176,134)"/>
<path d="M0 0 C1.32 0 2.64 0 4 0 C4 1.98 4 3.96 4 6 C5.32 6 6.64 6 8 6 C8 4.02 8 2.04 8 0 C9.32 0 10.64 0 12 0 C12 5.28 12 10.56 12 16 C10.68 16 9.36 16 8 16 C8 14.02 8 12.04 8 10 C6.68 10 5.36 10 4 10 C4 11.98 4 13.96 4 16 C2.68 16 1.36 16 0 16 C0 10.72 0 5.44 0 0 Z " fill="#D7D7D7" transform="translate(88,134)"/>
<path d="M0 0 C1.65 0 3.3 0 5 0 C5.83719383 2.29032311 6.6698929 4.58210957 7.5 6.875 C7.73847656 7.52597656 7.97695312 8.17695313 8.22265625 8.84765625 C10 13.7734375 10 13.7734375 10 16 C8.68 16 7.36 16 6 16 C6 15.34 6 14.68 6 14 C2.7 14.66 -0.6 15.32 -4 16 C-3.27275406 10.47293087 -1.66554027 5.30039859 0 0 Z " fill="#D1D1D1" transform="translate(164,134)"/>
<path d="M0 0 C3.5625 0.25 3.5625 0.25 6.5625 2.25 C6.5625 3.57 6.5625 4.89 6.5625 6.25 C5.5725 6.25 4.5825 6.25 3.5625 6.25 C3.2325 5.59 2.9025 4.93 2.5625 4.25 C1.2425 4.25 -0.0775 4.25 -1.4375 4.25 C-1.4375 4.91 -1.4375 5.57 -1.4375 6.25 C-0.87160156 6.49234375 -0.30570313 6.7346875 0.27734375 6.984375 C1.01082031 7.31953125 1.74429688 7.6546875 2.5 8 C3.23089844 8.32484375 3.96179688 8.6496875 4.71484375 8.984375 C6.5625 10.25 6.5625 10.25 7.4140625 12.25 C7.5625 14.25 7.5625 14.25 6 16.5 C3.5625 18.25 3.5625 18.25 0.5625 18.75 C-3.05971751 18.14629708 -4.23301272 17.13279106 -6.4375 14.25 C-6.4375 13.59 -6.4375 12.93 -6.4375 12.25 C-5.1175 12.25 -3.7975 12.25 -2.4375 12.25 C-2.1075 12.91 -1.7775 13.57 -1.4375 14.25 C-0.1175 14.25 1.2025 14.25 2.5625 14.25 C2.5625 13.59 2.5625 12.93 2.5625 12.25 C1.61375 11.79625 0.665 11.3425 -0.3125 10.875 C-3.4375 9.25 -3.4375 9.25 -5.4375 7.25 C-5.6875 4.75 -5.6875 4.75 -5.4375 2.25 C-3.4375 0.25 -3.4375 0.25 0 0 Z " fill="#ECECEC" transform="translate(139.4375,154.75)"/>
<path d="M0 0 C1.32 0 2.64 0 4 0 C4.33 4.62 4.66 9.24 5 14 C6.32 13.67 7.64 13.34 9 13 C9.33 8.71 9.66 4.42 10 0 C10.99 0 11.98 0 13 0 C13.1079859 2.43868168 13.18726589 4.87259133 13.25 7.3125 C13.30027344 8.34793945 13.30027344 8.34793945 13.3515625 9.40429688 C13.45002749 14.49986027 13.45002749 14.49986027 11.2109375 16.98828125 C7.86223985 18.52063583 5.49374203 17.90578497 2 17 C-0.49118953 13.2632157 -0.2065226 11.25548181 -0.125 6.8125 C-0.10695312 5.54019531 -0.08890625 4.26789063 -0.0703125 2.95703125 C-0.04710937 1.98121094 -0.02390625 1.00539062 0 0 Z " fill="#EBEBEB" transform="translate(36,155)"/>
<path d="M0 0 C3.96 0 7.92 0 12 0 C12 0.99 12 1.98 12 3 C9.03 3 6.06 3 3 3 C3 4.32 3 5.64 3 7 C4.98 7 6.96 7 9 7 C9 7.99 9 8.98 9 10 C7.02 10 5.04 10 3 10 C3 11.65 3 13.3 3 15 C5.97 15 8.94 15 12 15 C12 15.99 12 16.98 12 18 C8.04 18 4.08 18 0 18 C0 12.06 0 6.12 0 0 Z " fill="#F0F0F0" transform="translate(100,155)"/>
<path d="M0 0 C3.63 0 7.26 0 11 0 C11 0.99 11 1.98 11 3 C8.69 3 6.38 3 4 3 C4 3.99 4 4.98 4 6 C5.65 6 7.3 6 9 6 C9 7.32 9 8.64 9 10 C7.35 10 5.7 10 4 10 C4 10.99 4 11.98 4 13 C6.31 13 8.62 13 11 13 C11 13.99 11 14.98 11 16 C7.37 16 3.74 16 0 16 C0 10.72 0 5.44 0 0 Z " fill="#E4E4E4" transform="translate(36,134)"/>
<path d="M0 0 C1.32 0 2.64 0 4 0 C4.99 3.3 5.98 6.6 7 10 C8.32 6.7 9.64 3.4 11 0 C11.99 0 12.98 0 14 0 C12.75971762 6.17222879 11.10396411 12.06682122 9 18 C7.68 18 6.36 18 5 18 C4.16320723 15.37605694 3.33043058 12.75095616 2.5 10.125 C2.26152344 9.37863281 2.02304688 8.63226563 1.77734375 7.86328125 C0 2.2265625 0 2.2265625 0 0 Z " fill="#E6E6E6" transform="translate(81,155)"/>
<path d="M0 0 C3.5625 0.3125 3.5625 0.3125 5.5 1.625 C6.5625 3.3125 6.5625 3.3125 6.5625 6.3125 C5.2425 6.3125 3.9225 6.3125 2.5625 6.3125 C2.5625 5.3225 2.5625 4.3325 2.5625 3.3125 C1.2425 3.6425 -0.0775 3.9725 -1.4375 4.3125 C-1.4375 6.9525 -1.4375 9.5925 -1.4375 12.3125 C-0.1175 12.6425 1.2025 12.9725 2.5625 13.3125 C2.5625 12.3225 2.5625 11.3325 2.5625 10.3125 C3.8825 10.3125 5.2025 10.3125 6.5625 10.3125 C5.98905063 13.17974686 5.7010485 14.1739515 3.5625 16.3125 C-1.64685961 16.86668719 -1.64685961 16.86668719 -4.109375 15.140625 C-5.94317897 12.61644777 -5.80349036 10.84009719 -5.75 7.75 C-5.74613281 6.77933594 -5.74226563 5.80867187 -5.73828125 4.80859375 C-5.24544461 0.71868968 -3.99581556 0.36325596 0 0 Z " fill="#EBEBEB" transform="translate(116.4375,133.6875)"/>
<path d="M0 0 C1.32 0 2.64 0 4 0 C4.66 1.98 5.32 3.96 6 6 C6.66 6 7.32 6 8 6 C8.66 4.02 9.32 2.04 10 0 C11.32 0 12.64 0 14 0 C12.18965517 4.65517241 12.18965517 4.65517241 10.96875 6.875 C9.89103379 9.23902266 9.60264981 11.16996887 9.375 13.75 C9.30023438 14.54921875 9.22546875 15.3484375 9.1484375 16.171875 C9.09945312 16.77515625 9.05046875 17.3784375 9 18 C7.68 18 6.36 18 5 18 C4.89042969 17.26394531 4.78085938 16.52789062 4.66796875 15.76953125 C3.82022886 10.55214019 3.11712771 6.39231632 0 2 C0 1.34 0 0.68 0 0 Z " fill="#E5E5E5" transform="translate(175,155)"/>
<path d="M0 0 C3.96 0 7.92 0 12 0 C12 0.99 12 1.98 12 3 C10.68 3 9.36 3 8 3 C8 7.29 8 11.58 8 16 C6.68 16 5.36 16 4 16 C4 11.71 4 7.42 4 3 C2.68 3 1.36 3 0 3 C0 2.01 0 1.02 0 0 Z " fill="#E4E4E4" transform="translate(73,134)"/>
<path d="M0 0 C4.29 0 8.58 0 13 0 C13 0.99 13 1.98 13 3 C11.35 3 9.7 3 8 3 C8 7.95 8 12.9 8 18 C7.01 18 6.02 18 5 18 C5 13.05 5 8.1 5 3 C3.35 3 1.7 3 0 3 C0 2.01 0 1.02 0 0 Z " fill="#F7F7F7" transform="translate(159,155)"/>
<path d="M0 0 C1.32 0 2.64 0 4 0 C4 5.94 4 11.88 4 18 C2.68 18 1.36 18 0 18 C0 12.06 0 6.12 0 0 Z " fill="#DADADA" transform="translate(151,155)"/>
<path d="M0 0 C1.32 0 2.64 0 4 0 C4 5.94 4 11.88 4 18 C2.68 18 1.36 18 0 18 C0 12.06 0 6.12 0 0 Z " fill="#DDDDDD" transform="translate(73,155)"/>
<path d="M0 0 C2.97 0 5.94 0 9 0 C8.01 0.495 8.01 0.495 7 1 C7 1.66 7 2.32 7 3 C5.68 3 4.36 3 3 3 C3 6.3 3 9.6 3 13 C4.32 13.33 5.64 13.66 7 14 C6.67 14.33 6.34 14.66 6 15 C4.02 15 2.04 15 0 15 C0 10.05 0 5.1 0 0 Z " fill="#FAFAFA" transform="translate(51,134)"/>
<path d="M0 0 C1.32 0 2.64 0 4 0 C4 5.28 4 10.56 4 16 C2.68 16 1.36 16 0 16 C0 10.72 0 5.44 0 0 Z " fill="#DDDDDD" transform="translate(66,134)"/>
<path d="M0 0 C1.67542976 0.28604898 3.34385343 0.61781233 5 1 C5 3.64 5 6.28 5 9 C3.34385343 9.38218767 1.67542976 9.71395102 0 10 C-1 9 -1 9 -1.1328125 7.1875 C-1.13023437 6.465625 -1.12765625 5.74375 -1.125 5 C-1.12757813 4.278125 -1.13015625 3.55625 -1.1328125 2.8125 C-1 1 -1 1 0 0 Z " fill="#1C1C1C" transform="translate(130,137)"/>
<path d="M0 0 C1.65 0 3.3 0 5 0 C5 3.3 5 6.6 5 10 C3.35 10 1.7 10 0 10 C0 6.7 0 3.4 0 0 Z " fill="#111111" transform="translate(54,137)"/>
<path d="M0 0 C6.625 -0.25 6.625 -0.25 10 2 C10 3.32 10 4.64 10 6 C9.01 6 8.02 6 7 6 C6.67 5.34 6.34 4.68 6 4 C3.65245602 2.66096786 3.65245602 2.66096786 1 2 C0.01 2.66 -0.98 3.32 -2 4 C-1.34 2.68 -0.68 1.36 0 0 Z " fill="#E6E6E6" transform="translate(136,155)"/>
<path d="M0 0 C4.75 0.75 4.75 0.75 7 3 C7 3.99 7 4.98 7 6 C5.68 6 4.36 6 3 6 C3 5.01 3 4.02 3 3 C1.68 3 0.36 3 -1 3 C-0.67 2.01 -0.34 1.02 0 0 Z " fill="#E1E1E1" transform="translate(116,134)"/>
<path d="M0 0 C1.65 0 3.3 0 5 0 C5.5625 1.9375 5.5625 1.9375 6 4 C5 5 5 5 2.4375 5.0625 C1.2309375 5.0315625 1.2309375 5.0315625 0 5 C0 3.35 0 1.7 0 0 Z " fill="#222222" transform="translate(120,158)"/>
</svg>
