<svg xmlns="http://www.w3.org/2000/svg" width="1200" height="600" viewBox="0 0 1200 600" fill="none">
  <defs>
    <linearGradient id="petal" x1="0" y1="0" x2="1" y2="1">
      <stop offset="0%" stop-color="#ffb7d5"/>
      <stop offset="100%" stop-color="#ff6fae"/>
    </linearGradient>
  </defs>
  <rect width="1200" height="600" fill="none"/>
  <g opacity="0.65">
    <circle cx="300" cy="260" r="140" fill="url(#petal)"/>
    <circle cx="430" cy="250" r="120" fill="url(#petal)"/>
    <circle cx="250" cy="340" r="110" fill="url(#petal)"/>
    <circle cx="380" cy="360" r="100" fill="url(#petal)"/>
    <circle cx="500" cy="340" r="90" fill="url(#petal)"/>
    <circle cx="470" cy="170" r="70" fill="url(#petal)"/>
    <circle cx="330" cy="140" r="90" fill="url(#petal)"/>
  </g>
  <rect x="280" y="360" width="60" height="180" rx="30" fill="#743b29"/>
  <path d="M310 360c-10 60-40 100-90 130" stroke="#743b29" stroke-width="18" stroke-linecap="round" opacity="0.4"/>
  <path d="M330 360c10 55 35 95 80 120" stroke="#743b29" stroke-width="18" stroke-linecap="round" opacity="0.4"/>
  <!-- falling petals -->
  <g opacity="0.55">
    <ellipse cx="720" cy="160" rx="20" ry="12" fill="#ffc6df"/>
    <ellipse cx="840" cy="220" rx="16" ry="10" fill="#ffc6df"/>
    <ellipse cx="950" cy="140" rx="14" ry="9" fill="#ffc6df"/>
    <ellipse cx="1040" cy="260" rx="18" ry="11" fill="#ffc6df"/>
    <ellipse cx="880" cy="320" rx="22" ry="13" fill="#ffc6df"/>
  </g>
</svg>